<mxfile host="app.diagrams.net" modified="2023-08-03T10:21:20.838Z" agent="Mozilla/5.0 (Windows NT 10.0; Win64; x64) AppleWebKit/537.36 (KHTML, like Gecko) Chrome/115.0.0.0 Safari/537.36" version="21.6.6" etag="6wMDxVwFUebxwk7ZBzC9" type="github">
  <diagram name="Page-1" id="e-LUPOi7N9P8qnzKd833">
    <mxGraphModel>
      <root>
        <mxCell id="0" />
        <mxCell id="1" parent="0" />
      </root>
    </mxGraphModel>
  </diagram>
</mxfile>
